<svg width="46" height="47" viewBox="0 0 46 47" fill="none" xmlns="http://www.w3.org/2000/svg">
<rect y="0.333008" width="46" height="46" rx="11.5" fill="#F2EDE9"/>
<path fill-rule="evenodd" clip-rule="evenodd" d="M28.7529 14.708C29.5154 14.708 30.2467 15.0109 30.7859 15.5501C31.325 16.0892 31.6279 16.8205 31.6279 17.583V29.083C31.6279 29.8455 31.325 30.5768 30.7859 31.1159C30.2467 31.6551 29.5154 31.958 28.7529 31.958H17.2529C16.4904 31.958 15.7592 31.6551 15.22 31.1159C14.6808 30.5768 14.3779 29.8455 14.3779 29.083V17.583C14.3779 16.8205 14.6808 16.0892 15.22 15.5501C15.7592 15.0109 16.4904 14.708 17.2529 14.708H28.7529ZM19.1696 21.4163C18.9154 21.4163 18.6717 21.5173 18.492 21.697C18.3122 21.8768 18.2113 22.1205 18.2113 22.3747V27.1663C18.2113 27.4205 18.3122 27.6643 18.492 27.844C18.6717 28.0237 18.9154 28.1247 19.1696 28.1247C19.4238 28.1247 19.6675 28.0237 19.8472 27.844C20.027 27.6643 20.1279 27.4205 20.1279 27.1663V22.3747C20.1279 22.1205 20.027 21.8768 19.8472 21.697C19.6675 21.5173 19.4238 21.4163 19.1696 21.4163ZM22.0446 20.458C21.7904 20.458 21.5467 20.559 21.367 20.7387C21.1872 20.9184 21.0863 21.1622 21.0863 21.4163V27.1663C21.0863 27.4205 21.1872 27.6643 21.367 27.844C21.5467 28.0237 21.7904 28.1247 22.0446 28.1247C22.2988 28.1247 22.5425 28.0237 22.7222 27.844C22.902 27.6643 23.0029 27.4205 23.0029 27.1663V23.6588C23.2952 23.3292 23.7888 22.942 24.3379 22.7072C24.657 22.5711 25.1371 22.5155 25.4706 22.621C25.5813 22.649 25.6798 22.7123 25.7514 22.8011C25.8013 22.8682 25.8779 23.0177 25.8779 23.333V27.1663C25.8779 27.4205 25.9789 27.6643 26.1586 27.844C26.3383 28.0237 26.5821 28.1247 26.8363 28.1247C27.0904 28.1247 27.3342 28.0237 27.5139 27.844C27.6936 27.6643 27.7946 27.4205 27.7946 27.1663V23.333C27.7946 22.6909 27.6317 22.1198 27.2924 21.6617C26.9803 21.2463 26.5434 20.9417 26.0456 20.7925C25.1812 20.5213 24.2238 20.6717 23.5846 20.9458C23.38 21.0338 23.1807 21.1337 22.9876 21.2448C22.9474 21.024 22.831 20.8243 22.6587 20.6805C22.4864 20.5367 22.269 20.458 22.0446 20.458ZM19.1696 18.5413C18.9154 18.5413 18.6717 18.6423 18.492 18.822C18.3122 19.0018 18.2113 19.2455 18.2113 19.4997C18.2113 19.7538 18.3122 19.9976 18.492 20.1773C18.6717 20.357 18.9154 20.458 19.1696 20.458C19.4238 20.458 19.6675 20.357 19.8472 20.1773C20.027 19.9976 20.1279 19.7538 20.1279 19.4997C20.1279 19.2455 20.027 19.0018 19.8472 18.822C19.6675 18.6423 19.4238 18.5413 19.1696 18.5413Z" fill="#573616"/>
</svg>
