<svg width="47" height="47" viewBox="0 0 47 47" fill="none" xmlns="http://www.w3.org/2000/svg">
<rect x="0.333008" y="0.333008" width="46" height="46" rx="11.5" fill="#F2EDE9"/>
<path d="M30.0417 19.5C29.2431 19.5 28.5642 19.2205 28.0052 18.6615C27.4462 18.1024 27.1667 17.4236 27.1667 16.625C27.1667 15.8264 27.4462 15.1476 28.0052 14.5885C28.5642 14.0295 29.2431 13.75 30.0417 13.75C30.8403 13.75 31.5191 14.0295 32.0781 14.5885C32.6372 15.1476 32.9167 15.8264 32.9167 16.625C32.9167 17.4236 32.6372 18.1024 32.0781 18.6615C31.5191 19.2205 30.8403 19.5 30.0417 19.5ZM15.6667 31C15.1396 31 14.6885 30.8125 14.3135 30.4375C13.9385 30.0624 13.7506 29.6111 13.75 29.0833V17.5833C13.75 17.0562 13.9378 16.6052 14.3135 16.2302C14.6892 15.8551 15.1402 15.6673 15.6667 15.6667H24.3875C24.6431 15.6667 24.8548 15.7625 25.0229 15.9542C25.1909 16.1458 25.2666 16.3694 25.25 16.625C25.25 16.8007 25.258 16.9646 25.274 17.1166C25.2899 17.2687 25.3139 17.4242 25.3458 17.5833C25.4576 18.0944 25.6413 18.5698 25.8969 19.0093C26.1524 19.4489 26.4639 19.8361 26.8312 20.1708L23.3333 22.375L16.9125 18.35C16.641 18.1743 16.3653 18.1663 16.0855 18.326C15.8056 18.4858 15.666 18.7253 15.6667 19.0448C15.6667 19.1885 15.6986 19.3205 15.7625 19.4406C15.8264 19.5607 15.9222 19.6604 16.05 19.7396L22.8302 23.9802C22.9899 24.076 23.1576 24.124 23.3333 24.124C23.509 24.124 23.6767 24.076 23.8365 23.9802L28.3885 21.1292C28.6601 21.225 28.9316 21.2969 29.2031 21.3448C29.4747 21.3927 29.7542 21.4167 30.0417 21.4167C30.3292 21.4167 30.6167 21.3927 30.9042 21.3448C31.1917 21.2969 31.4712 21.217 31.7427 21.1052C32.0142 20.9934 32.2778 21.0094 32.5333 21.1531C32.7889 21.2969 32.9167 21.5045 32.9167 21.776V29.0833C32.9167 29.6104 32.7288 30.0618 32.3532 30.4375C31.9775 30.8131 31.5264 31.0006 31 31H15.6667Z" fill="#573616"/>
</svg>
