<svg width="47" height="47" viewBox="0 0 47 47" fill="none" xmlns="http://www.w3.org/2000/svg">
<rect x="0.666992" y="0.333008" width="46" height="46" rx="11.5" fill="#F2EDE9"/>
<path fill-rule="evenodd" clip-rule="evenodd" d="M23.6654 13.75C18.3725 13.75 14.082 18.0405 14.082 23.3333C14.082 25.1446 14.5852 26.8408 15.4601 28.286L14.6053 31.1917C14.5562 31.3585 14.553 31.5355 14.5959 31.704C14.6389 31.8725 14.7265 32.0263 14.8494 32.1493C14.9724 32.2722 15.1262 32.3598 15.2947 32.4028C15.4632 32.4457 15.6402 32.4425 15.807 32.3934L18.7127 31.5386C20.2065 32.4422 21.9195 32.9189 23.6654 32.9167C28.9582 32.9167 33.2487 28.6262 33.2487 23.3333C33.2487 18.0405 28.9582 13.75 23.6654 13.75ZM21.4976 25.502C23.4363 27.4398 25.2869 27.6957 25.9404 27.7196C26.9342 27.756 27.9022 26.997 28.2788 26.1163C28.3259 26.0067 28.343 25.8864 28.3281 25.768C28.3133 25.6496 28.2672 25.5373 28.1944 25.4426C27.6693 24.7718 26.9592 24.2898 26.2653 23.8106C26.1205 23.7102 25.9424 23.6699 25.7685 23.6981C25.5946 23.7263 25.4384 23.8209 25.3329 23.962L24.7579 24.8389C24.7275 24.8858 24.6804 24.9195 24.6261 24.933C24.5718 24.9465 24.5144 24.9389 24.4656 24.9117C24.0755 24.6884 23.5072 24.3089 23.099 23.9007C22.6907 23.4924 22.3342 22.95 22.1339 22.5849C22.1097 22.5384 22.1029 22.4847 22.1146 22.4336C22.1264 22.3825 22.156 22.3372 22.1982 22.306L23.0837 21.6486C23.2104 21.5389 23.2922 21.3864 23.3134 21.2202C23.3347 21.0539 23.2938 20.8857 23.1987 20.7477C22.7693 20.1191 22.2691 19.3198 21.5436 18.7899C21.4498 18.7225 21.3401 18.6804 21.2253 18.6678C21.1105 18.6552 20.9943 18.6725 20.8881 18.718C20.0064 19.0956 19.2436 20.0635 19.28 21.0592C19.304 21.7128 19.5599 23.5633 21.4976 25.502Z" fill="#573616"/>
</svg>
