<svg width="46" height="46" viewBox="0 0 46 46" fill="none" xmlns="http://www.w3.org/2000/svg">
<rect width="46" height="46" rx="11.5" fill="#F2EDE9"/>
<path d="M26.2587 28.7018C25.8274 28.7177 25.4163 28.7299 25.0253 28.7382C24.6343 28.7465 24.2867 28.7503 23.9826 28.7497H23.0003C21.8663 28.7497 20.8041 28.7337 19.8139 28.7018C18.9673 28.6698 18.1326 28.626 17.3097 28.5705C16.4869 28.5149 15.892 28.4389 15.5253 28.3424C15.11 28.2306 14.7507 28.0229 14.4472 27.7195C14.1437 27.416 13.9361 27.0566 13.8243 26.6413C13.7285 26.274 13.6527 25.8268 13.5972 25.2997C13.5416 24.7726 13.4975 24.2695 13.4649 23.7903C13.433 23.2153 13.417 22.6323 13.417 22.0413C13.417 21.4504 13.433 20.8674 13.4649 20.2924C13.4969 19.8132 13.5409 19.3101 13.5972 18.783C13.6534 18.2559 13.7291 17.8087 13.8243 17.4413C13.9361 17.0261 14.1437 16.6667 14.4472 16.3632C14.7507 16.0597 15.11 15.8521 15.5253 15.7403C15.8927 15.6445 16.4878 15.5684 17.3107 15.5122C18.1336 15.456 18.968 15.4122 19.8139 15.3809C20.8041 15.349 21.8663 15.333 23.0003 15.333C24.1344 15.333 25.1965 15.349 26.1868 15.3809C27.0333 15.4129 27.868 15.457 28.6909 15.5132C29.5138 15.5694 30.1086 15.6451 30.4753 15.7403C30.8906 15.8521 31.25 16.0597 31.5534 16.3632C31.8569 16.6667 32.0646 17.0261 32.1764 17.4413C32.2722 17.8087 32.3482 18.2559 32.4044 18.783C32.4607 19.3101 32.5044 19.8132 32.5357 20.2924C32.5677 20.8674 32.5837 21.4504 32.5837 22.0413V22.4486C32.2802 22.3209 31.9687 22.2212 31.6493 22.1496C31.3298 22.0781 31.0024 22.042 30.667 22.0413C29.3413 22.0413 28.2114 22.5087 27.2774 23.4434C26.3433 24.3781 25.876 25.508 25.8753 26.833C25.8753 27.1684 25.9073 27.492 25.9712 27.8038C26.035 28.1156 26.1309 28.4149 26.2587 28.7018ZM21.0837 24.9163L26.067 22.0413L21.0837 19.1663V24.9163ZM29.7087 29.708V27.7913H27.792V25.8747H29.7087V23.958H31.6253V25.8747H33.542V27.7913H31.6253V29.708H29.7087Z" fill="#573616"/>
</svg>
