<svg width="46" height="46" viewBox="0 0 46 46" fill="none" xmlns="http://www.w3.org/2000/svg">
<rect width="46" height="46" rx="11.5" fill="#F2EDE9"/>
<path fill-rule="evenodd" clip-rule="evenodd" d="M30.4547 15.7454C30.6915 15.6457 30.9507 15.6113 31.2053 15.6458C31.4599 15.6803 31.7006 15.7824 31.9024 15.9415C32.1042 16.1006 32.2596 16.3109 32.3525 16.5505C32.4454 16.79 32.4724 17.0501 32.4307 17.3036L30.2572 30.4874C30.0464 31.7591 28.6511 32.4884 27.4848 31.855C26.5092 31.325 25.0602 30.5085 23.7569 29.6565C23.1052 29.2301 21.109 27.8645 21.3543 26.8927C21.5652 26.0618 24.9193 22.9396 26.836 21.0833C27.5883 20.354 27.2452 19.9333 26.3568 20.6041C24.1507 22.2697 20.6087 24.8026 19.4377 25.5156C18.4046 26.1443 17.866 26.2516 17.222 26.1443C16.0471 25.9488 14.9575 25.6459 14.0681 25.277C12.8664 24.7786 12.9248 23.1265 14.0672 22.6454L30.4547 15.7454Z" fill="#573616"/>
</svg>
