<svg width="47" height="46" viewBox="0 0 47 46" fill="none" xmlns="http://www.w3.org/2000/svg">
<rect x="0.333984" width="46" height="46" rx="11.5" fill="#F2EDE9"/>
<path fill-rule="evenodd" clip-rule="evenodd" d="M29.084 14.375C29.8465 14.375 30.5777 14.6779 31.1169 15.2171C31.6561 15.7562 31.959 16.4875 31.959 17.25V28.75C31.959 29.5125 31.6561 30.2438 31.1169 30.7829C30.5777 31.3221 29.8465 31.625 29.084 31.625H17.584C16.8215 31.625 16.0902 31.3221 15.5511 30.7829C15.0119 30.2438 14.709 29.5125 14.709 28.75V17.25C14.709 16.4875 15.0119 15.7562 15.5511 15.2171C16.0902 14.6779 16.8215 14.375 17.584 14.375H29.084ZM19.5007 21.0833C19.2465 21.0833 19.0027 21.1843 18.823 21.364C18.6433 21.5437 18.5423 21.7875 18.5423 22.0417V26.8333C18.5423 27.0875 18.6433 27.3313 18.823 27.511C19.0027 27.6907 19.2465 27.7917 19.5007 27.7917C19.7548 27.7917 19.9986 27.6907 20.1783 27.511C20.358 27.3313 20.459 27.0875 20.459 26.8333V22.0417C20.459 21.7875 20.358 21.5437 20.1783 21.364C19.9986 21.1843 19.7548 21.0833 19.5007 21.0833ZM22.3757 20.125C22.1215 20.125 21.8777 20.226 21.698 20.4057C21.5183 20.5854 21.4173 20.8292 21.4173 21.0833V26.8333C21.4173 27.0875 21.5183 27.3313 21.698 27.511C21.8777 27.6907 22.1215 27.7917 22.3757 27.7917C22.6298 27.7917 22.8736 27.6907 23.0533 27.511C23.233 27.3313 23.334 27.0875 23.334 26.8333V23.3258C23.6263 22.9962 24.1198 22.609 24.6689 22.3742C24.9881 22.2381 25.4682 22.1825 25.8017 22.288C25.9123 22.316 26.0109 22.3793 26.0825 22.4681C26.1323 22.5352 26.209 22.6847 26.209 23V26.8333C26.209 27.0875 26.31 27.3313 26.4897 27.511C26.6694 27.6907 26.9132 27.7917 27.1673 27.7917C27.4215 27.7917 27.6652 27.6907 27.845 27.511C28.0247 27.3313 28.1257 27.0875 28.1257 26.8333V23C28.1257 22.3579 27.9627 21.7867 27.6235 21.3287C27.3113 20.9133 26.8744 20.6087 26.3767 20.4595C25.5123 20.1883 24.5549 20.3387 23.9157 20.6128C23.7111 20.7008 23.5117 20.8006 23.3187 20.9118C23.2785 20.691 23.1621 20.4913 22.9897 20.3475C22.8174 20.2037 22.6001 20.125 22.3757 20.125ZM19.5007 18.2083C19.2465 18.2083 19.0027 18.3093 18.823 18.489C18.6433 18.6687 18.5423 18.9125 18.5423 19.1667C18.5423 19.4208 18.6433 19.6646 18.823 19.8443C19.0027 20.024 19.2465 20.125 19.5007 20.125C19.7548 20.125 19.9986 20.024 20.1783 19.8443C20.358 19.6646 20.459 19.4208 20.459 19.1667C20.459 18.9125 20.358 18.6687 20.1783 18.489C19.9986 18.3093 19.7548 18.2083 19.5007 18.2083Z" fill="#573616"/>
</svg>
