<svg width="47" height="46" viewBox="0 0 47 46" fill="none" xmlns="http://www.w3.org/2000/svg">
<rect x="0.333984" width="46" height="46" rx="11.5" fill="#F2EDE9"/>
<path fill-rule="evenodd" clip-rule="evenodd" d="M30.7896 15.7454C31.0264 15.6457 31.2857 15.6113 31.5403 15.6458C31.7949 15.6803 32.0356 15.7824 32.2374 15.9415C32.4391 16.1006 32.5946 16.3109 32.6875 16.5505C32.7804 16.79 32.8074 17.0501 32.7657 17.3036L30.5922 30.4874C30.3814 31.7591 28.986 32.4884 27.8197 31.855C26.8442 31.325 25.3952 30.5085 24.0918 29.6565C23.4402 29.2301 21.444 27.8645 21.6893 26.8927C21.9001 26.0618 25.2543 22.9396 27.171 21.0833C27.9232 20.354 27.5802 19.9333 26.6918 20.6041C24.4857 22.2697 20.9437 24.8026 19.7726 25.5156C18.7395 26.1443 18.201 26.2516 17.557 26.1443C16.382 25.9488 15.2924 25.6459 14.4031 25.277C13.2013 24.7786 13.2598 23.1265 14.4021 22.6454L30.7896 15.7454Z" fill="#573616"/>
</svg>
