<svg width="46" height="46" viewBox="0 0 46 46" fill="none" xmlns="http://www.w3.org/2000/svg">
<rect width="46" height="46" rx="11.5" fill="#F2EDE9"/>
<path fill-rule="evenodd" clip-rule="evenodd" d="M22.9993 13.4169C17.7065 13.4169 13.416 17.7073 13.416 23.0002C13.416 24.8115 13.9191 26.5077 14.7941 27.9529L13.9393 30.8585C13.8902 31.0254 13.887 31.2023 13.9299 31.3708C13.9729 31.5394 14.0604 31.6932 14.1834 31.8161C14.3064 31.9391 14.4602 32.0267 14.6287 32.0696C14.7972 32.1126 14.9742 32.1094 15.141 32.0603L18.0467 31.2055C19.5405 32.1091 21.2535 32.5858 22.9993 32.5835C28.2922 32.5835 32.5827 28.2931 32.5827 23.0002C32.5827 17.7073 28.2922 13.4169 22.9993 13.4169ZM20.8316 25.1689C22.7703 27.1067 24.6208 27.3625 25.2744 27.3865C26.2682 27.4229 27.2361 26.6639 27.6128 25.7832C27.6599 25.6736 27.677 25.5533 27.6621 25.4349C27.6473 25.3165 27.6011 25.2041 27.5284 25.1095C27.0033 24.4387 26.2931 23.9566 25.5993 23.4775C25.4545 23.3771 25.2764 23.3367 25.1025 23.365C24.9286 23.3932 24.7724 23.4878 24.6668 23.6289L24.0918 24.5057C24.0615 24.5527 24.0144 24.5864 23.9601 24.5999C23.9058 24.6134 23.8484 24.6058 23.7996 24.5786C23.4095 24.3553 22.8412 23.9758 22.433 23.5675C22.0247 23.1593 21.6682 22.6169 21.4679 22.2517C21.4437 22.2052 21.4369 22.1516 21.4486 22.1005C21.4604 22.0494 21.49 22.0041 21.5321 21.9729L22.4176 21.3155C22.5444 21.2058 22.6262 21.0533 22.6474 20.887C22.6686 20.7208 22.6278 20.5526 22.5326 20.4146C22.1033 19.786 21.6031 18.9867 20.8776 18.4567C20.7838 18.3893 20.6741 18.3473 20.5593 18.3347C20.4444 18.3221 20.3283 18.3394 20.2221 18.3849C19.3404 18.7625 18.5776 19.7304 18.614 20.7261C18.638 21.3797 18.8938 23.2302 20.8316 25.1689Z" fill="#573616"/>
</svg>
