<svg width="47" height="46" viewBox="0 0 47 46" fill="none" xmlns="http://www.w3.org/2000/svg">
<rect x="0.667969" width="46" height="46" rx="11.5" fill="#F2EDE9"/>
<path d="M26.9257 28.7021C26.4944 28.718 26.0833 28.7302 25.6923 28.7385C25.3013 28.7468 24.9537 28.7506 24.6496 28.75H23.6673C22.5333 28.75 21.4711 28.734 20.4809 28.7021C19.6343 28.6701 18.7996 28.6264 17.9767 28.5708C17.1538 28.5152 16.559 28.4392 16.1923 28.3427C15.777 28.2309 15.4177 28.0232 15.1142 27.7198C14.8107 27.4163 14.6031 27.0569 14.4913 26.6416C14.3954 26.2743 14.3197 25.8271 14.2642 25.3C14.2086 24.7729 14.1645 24.2698 14.1319 23.7906C14.1 23.2156 14.084 22.6326 14.084 22.0416C14.084 21.4507 14.1 20.8677 14.1319 20.2927C14.1638 19.8135 14.2079 19.3104 14.2642 18.7833C14.3204 18.2562 14.3961 17.809 14.4913 17.4416C14.6031 17.0264 14.8107 16.667 15.1142 16.3635C15.4177 16.06 15.777 15.8524 16.1923 15.7406C16.5597 15.6448 17.1548 15.5687 17.9777 15.5125C18.8006 15.4563 19.635 15.4125 20.4809 15.3812C21.4711 15.3493 22.5333 15.3333 23.6673 15.3333C24.8013 15.3333 25.8635 15.3493 26.8538 15.3812C27.7003 15.4132 28.535 15.4573 29.3579 15.5135C30.1808 15.5697 30.7756 15.6454 31.1423 15.7406C31.5576 15.8524 31.917 16.06 32.2204 16.3635C32.5239 16.667 32.7316 17.0264 32.8434 17.4416C32.9392 17.809 33.0152 18.2562 33.0714 18.7833C33.1277 19.3104 33.1714 19.8135 33.2027 20.2927C33.2347 20.8677 33.2507 21.4507 33.2507 22.0416V22.4489C32.9472 22.3212 32.6357 22.2215 32.3163 22.1499C31.9968 22.0784 31.6694 22.0423 31.334 22.0416C30.0083 22.0416 28.8784 22.509 27.9444 23.4437C27.0103 24.3784 26.543 25.5083 26.5423 26.8333C26.5423 27.1687 26.5743 27.4923 26.6382 27.8041C26.702 28.1159 26.7979 28.4152 26.9257 28.7021ZM21.7507 24.9166L26.734 22.0416L21.7507 19.1666V24.9166ZM30.3757 29.7083V27.7916H28.459V25.875H30.3757V23.9583H32.2923V25.875H34.209V27.7916H32.2923V29.7083H30.3757Z" fill="#573616"/>
</svg>
