<svg width="20" height="19" viewBox="0 0 20 19" fill="none" xmlns="http://www.w3.org/2000/svg">
<path d="M18.36 9.69775C18.36 9.08025 18.3046 8.4865 18.2017 7.9165H10V11.285H14.6867C14.4848 12.3736 13.8713 13.2959 12.949 13.9134V16.0984H15.7633C17.41 14.5823 18.36 12.3498 18.36 9.69775Z" fill="#4285F4"/>
<path d="M9.99986 18.208C12.3511 18.208 14.3224 17.4283 15.7632 16.0983L12.9488 13.9133C12.169 14.4358 11.1715 14.7445 9.99986 14.7445C7.73173 14.7445 5.81194 13.2126 5.12715 11.1543H2.21777V13.4105C3.65069 16.2566 6.59569 18.208 9.99986 18.208Z" fill="#34A853"/>
<path d="M5.12762 11.1548C4.95345 10.6323 4.85449 10.0741 4.85449 9.50019C4.85449 8.92623 4.95345 8.36811 5.12762 7.84561V5.58936H2.21824C1.60866 6.80287 1.29145 8.14217 1.29199 9.50019C1.29199 10.9054 1.62845 12.2354 2.21824 13.411L5.12762 11.1548Z" fill="#FBBC05"/>
<path d="M9.99986 4.25505C11.2784 4.25505 12.4263 4.69442 13.3288 5.55734L15.8265 3.05963C14.3184 1.65442 12.3471 0.791504 9.99986 0.791504C6.59569 0.791504 3.65069 2.74296 2.21777 5.589L5.12715 7.84525C5.81194 5.78692 7.73173 4.25505 9.99986 4.25505Z" fill="#EA4335"/>
</svg>
