<svg width="12" height="12" viewBox="0 0 12 12" fill="none" xmlns="http://www.w3.org/2000/svg">
<path d="M10.7354 0.0397949H0.618834C0.295964 0.0397949 0 0.33579 0 0.685602V1.81577C0 2.16558 0.295964 2.46157 0.618834 2.46157H10.7354C11.0852 2.46157 11.3543 2.16558 11.3812 1.81577V0.685602C11.3812 0.33579 11.0852 0.0397949 10.7354 0.0397949ZM10.7354 6.39024H0.618834C0.457399 6.39024 0.295964 6.47096 0.161435 6.5786C0.0538117 6.68623 0 6.84768 0 7.03604V8.16621C0 8.51602 0.295964 8.81201 0.618834 8.81201H10.7354C11.0852 8.81201 11.3543 8.54293 11.3812 8.16621V7.03604C11.3812 6.65932 11.0852 6.39024 10.7354 6.39024ZM6.32287 9.56546H0.618834C0.457399 9.56546 0.295964 9.61927 0.188341 9.75382C0.0807175 9.86145 0 10.0229 0 10.2113V11.3414C0 11.6912 0.295964 11.9872 0.618834 11.9872H6.29596C6.64574 11.9872 6.9148 11.6912 6.9148 11.3414V10.1844C6.9417 9.83454 6.67265 9.56546 6.32287 9.56546ZM11.3812 3.21502H0.618834C0.457399 3.21502 0.295964 3.26883 0.188341 3.40338C0.0807175 3.51101 0 3.67246 0 3.86082V4.99099C0 5.3408 0.295964 5.63679 0.618834 5.63679H11.3543C11.704 5.63679 11.9731 5.3408 11.9731 4.99099V3.86082C12 3.51101 11.7309 3.21502 11.3812 3.21502Z" fill="#00C3F7"/>
</svg>
